<mxfile host="Electron" agent="Mozilla/5.0 (Windows NT 10.0; Win64; x64) AppleWebKit/537.36 (KHTML, like Gecko) draw.io/27.0.9 Chrome/134.0.6998.205 Electron/35.4.0 Safari/537.36" version="27.0.9">
  <diagram name="페이지-1" id="5zLHQ8d8vOpNL83uMHi0">
    <mxGraphModel dx="3258" dy="2582" grid="1" gridSize="10" guides="1" tooltips="1" connect="1" arrows="1" fold="1" page="1" pageScale="1" pageWidth="827" pageHeight="1169" math="0" shadow="0">
      <root>
        <mxCell id="0" />
        <mxCell id="1" parent="0" />
        <mxCell id="ce-Z01VO8jr70EExwTUU-59" value="" style="rounded=0;whiteSpace=wrap;html=1;" vertex="1" parent="1">
          <mxGeometry x="-340" y="60" width="1220" height="1080" as="geometry" />
        </mxCell>
        <mxCell id="ce-Z01VO8jr70EExwTUU-61" value="" style="rounded=0;whiteSpace=wrap;html=1;" vertex="1" parent="1">
          <mxGeometry x="-170" y="310" width="690" height="820" as="geometry" />
        </mxCell>
        <mxCell id="ce-Z01VO8jr70EExwTUU-37" value="" style="rounded=0;whiteSpace=wrap;html=1;" vertex="1" parent="1">
          <mxGeometry x="-115" y="345" width="250" height="390" as="geometry" />
        </mxCell>
        <mxCell id="ce-Z01VO8jr70EExwTUU-24" value="" style="shape=table;startSize=0;container=1;collapsible=0;childLayout=tableLayout;" vertex="1" parent="1">
          <mxGeometry x="-70" y="410" width="160" height="260" as="geometry" />
        </mxCell>
        <mxCell id="ce-Z01VO8jr70EExwTUU-25" value="" style="shape=tableRow;horizontal=0;startSize=0;swimlaneHead=0;swimlaneBody=0;strokeColor=inherit;top=0;left=0;bottom=0;right=0;collapsible=0;dropTarget=0;fillColor=none;points=[[0,0.5],[1,0.5]];portConstraint=eastwest;" vertex="1" parent="ce-Z01VO8jr70EExwTUU-24">
          <mxGeometry width="160" height="43" as="geometry" />
        </mxCell>
        <mxCell id="ce-Z01VO8jr70EExwTUU-26" value="R0" style="shape=partialRectangle;html=1;whiteSpace=wrap;connectable=0;strokeColor=inherit;overflow=hidden;fillColor=none;top=0;left=0;bottom=0;right=0;pointerEvents=1;" vertex="1" parent="ce-Z01VO8jr70EExwTUU-25">
          <mxGeometry width="160" height="43" as="geometry">
            <mxRectangle width="160" height="43" as="alternateBounds" />
          </mxGeometry>
        </mxCell>
        <mxCell id="ce-Z01VO8jr70EExwTUU-27" value="" style="shape=tableRow;horizontal=0;startSize=0;swimlaneHead=0;swimlaneBody=0;strokeColor=inherit;top=0;left=0;bottom=0;right=0;collapsible=0;dropTarget=0;fillColor=none;points=[[0,0.5],[1,0.5]];portConstraint=eastwest;" vertex="1" parent="ce-Z01VO8jr70EExwTUU-24">
          <mxGeometry y="43" width="160" height="44" as="geometry" />
        </mxCell>
        <mxCell id="ce-Z01VO8jr70EExwTUU-28" value="R1" style="shape=partialRectangle;html=1;whiteSpace=wrap;connectable=0;strokeColor=inherit;overflow=hidden;fillColor=none;top=0;left=0;bottom=0;right=0;pointerEvents=1;" vertex="1" parent="ce-Z01VO8jr70EExwTUU-27">
          <mxGeometry width="160" height="44" as="geometry">
            <mxRectangle width="160" height="44" as="alternateBounds" />
          </mxGeometry>
        </mxCell>
        <mxCell id="ce-Z01VO8jr70EExwTUU-29" value="" style="shape=tableRow;horizontal=0;startSize=0;swimlaneHead=0;swimlaneBody=0;strokeColor=inherit;top=0;left=0;bottom=0;right=0;collapsible=0;dropTarget=0;fillColor=none;points=[[0,0.5],[1,0.5]];portConstraint=eastwest;" vertex="1" parent="ce-Z01VO8jr70EExwTUU-24">
          <mxGeometry y="87" width="160" height="43" as="geometry" />
        </mxCell>
        <mxCell id="ce-Z01VO8jr70EExwTUU-30" value="R2" style="shape=partialRectangle;html=1;whiteSpace=wrap;connectable=0;strokeColor=inherit;overflow=hidden;fillColor=none;top=0;left=0;bottom=0;right=0;pointerEvents=1;" vertex="1" parent="ce-Z01VO8jr70EExwTUU-29">
          <mxGeometry width="160" height="43" as="geometry">
            <mxRectangle width="160" height="43" as="alternateBounds" />
          </mxGeometry>
        </mxCell>
        <mxCell id="ce-Z01VO8jr70EExwTUU-31" value="" style="shape=tableRow;horizontal=0;startSize=0;swimlaneHead=0;swimlaneBody=0;strokeColor=inherit;top=0;left=0;bottom=0;right=0;collapsible=0;dropTarget=0;fillColor=none;points=[[0,0.5],[1,0.5]];portConstraint=eastwest;" vertex="1" parent="ce-Z01VO8jr70EExwTUU-24">
          <mxGeometry y="130" width="160" height="43" as="geometry" />
        </mxCell>
        <mxCell id="ce-Z01VO8jr70EExwTUU-32" value="..." style="shape=partialRectangle;html=1;whiteSpace=wrap;connectable=0;strokeColor=inherit;overflow=hidden;fillColor=none;top=0;left=0;bottom=0;right=0;pointerEvents=1;" vertex="1" parent="ce-Z01VO8jr70EExwTUU-31">
          <mxGeometry width="160" height="43" as="geometry">
            <mxRectangle width="160" height="43" as="alternateBounds" />
          </mxGeometry>
        </mxCell>
        <mxCell id="ce-Z01VO8jr70EExwTUU-33" value="" style="shape=tableRow;horizontal=0;startSize=0;swimlaneHead=0;swimlaneBody=0;strokeColor=inherit;top=0;left=0;bottom=0;right=0;collapsible=0;dropTarget=0;fillColor=none;points=[[0,0.5],[1,0.5]];portConstraint=eastwest;" vertex="1" parent="ce-Z01VO8jr70EExwTUU-24">
          <mxGeometry y="173" width="160" height="44" as="geometry" />
        </mxCell>
        <mxCell id="ce-Z01VO8jr70EExwTUU-34" value="R30" style="shape=partialRectangle;html=1;whiteSpace=wrap;connectable=0;strokeColor=inherit;overflow=hidden;fillColor=none;top=0;left=0;bottom=0;right=0;pointerEvents=1;" vertex="1" parent="ce-Z01VO8jr70EExwTUU-33">
          <mxGeometry width="160" height="44" as="geometry">
            <mxRectangle width="160" height="44" as="alternateBounds" />
          </mxGeometry>
        </mxCell>
        <mxCell id="ce-Z01VO8jr70EExwTUU-35" value="" style="shape=tableRow;horizontal=0;startSize=0;swimlaneHead=0;swimlaneBody=0;strokeColor=inherit;top=0;left=0;bottom=0;right=0;collapsible=0;dropTarget=0;fillColor=none;points=[[0,0.5],[1,0.5]];portConstraint=eastwest;" vertex="1" parent="ce-Z01VO8jr70EExwTUU-24">
          <mxGeometry y="217" width="160" height="43" as="geometry" />
        </mxCell>
        <mxCell id="ce-Z01VO8jr70EExwTUU-36" value="R31" style="shape=partialRectangle;html=1;whiteSpace=wrap;connectable=0;strokeColor=inherit;overflow=hidden;fillColor=none;top=0;left=0;bottom=0;right=0;pointerEvents=1;" vertex="1" parent="ce-Z01VO8jr70EExwTUU-35">
          <mxGeometry width="160" height="43" as="geometry">
            <mxRectangle width="160" height="43" as="alternateBounds" />
          </mxGeometry>
        </mxCell>
        <mxCell id="ce-Z01VO8jr70EExwTUU-50" style="edgeStyle=orthogonalEdgeStyle;rounded=0;orthogonalLoop=1;jettySize=auto;html=1;exitX=0;exitY=0.75;exitDx=0;exitDy=0;entryX=0;entryY=0.25;entryDx=0;entryDy=0;" edge="1" parent="1" source="ce-Z01VO8jr70EExwTUU-38" target="ce-Z01VO8jr70EExwTUU-44">
          <mxGeometry relative="1" as="geometry">
            <Array as="points">
              <mxPoint y="938" />
              <mxPoint y="1100" />
              <mxPoint x="430" y="1100" />
              <mxPoint x="430" y="915" />
            </Array>
          </mxGeometry>
        </mxCell>
        <mxCell id="ce-Z01VO8jr70EExwTUU-38" value="PC" style="rounded=0;whiteSpace=wrap;html=1;fontStyle=1;fontSize=30;" vertex="1" parent="1">
          <mxGeometry x="20" y="870" width="170" height="90" as="geometry" />
        </mxCell>
        <mxCell id="ce-Z01VO8jr70EExwTUU-39" value="ALU" style="shape=step;perimeter=stepPerimeter;whiteSpace=wrap;html=1;fixedSize=1;fontStyle=1;fontSize=30;" vertex="1" parent="1">
          <mxGeometry x="250" y="460" width="120" height="160" as="geometry" />
        </mxCell>
        <mxCell id="ce-Z01VO8jr70EExwTUU-40" value="" style="endArrow=classic;html=1;rounded=0;exitX=0.98;exitY=0.423;exitDx=0;exitDy=0;exitPerimeter=0;entryX=0;entryY=0.25;entryDx=0;entryDy=0;" edge="1" parent="1" source="ce-Z01VO8jr70EExwTUU-37" target="ce-Z01VO8jr70EExwTUU-39">
          <mxGeometry width="50" height="50" relative="1" as="geometry">
            <mxPoint x="140" y="510" as="sourcePoint" />
            <mxPoint x="190" y="460" as="targetPoint" />
          </mxGeometry>
        </mxCell>
        <mxCell id="ce-Z01VO8jr70EExwTUU-41" value="" style="endArrow=classic;html=1;rounded=0;exitX=0.98;exitY=0.423;exitDx=0;exitDy=0;exitPerimeter=0;entryX=0;entryY=0.25;entryDx=0;entryDy=0;" edge="1" parent="1">
          <mxGeometry width="50" height="50" relative="1" as="geometry">
            <mxPoint x="130" y="576" as="sourcePoint" />
            <mxPoint x="262" y="574" as="targetPoint" />
          </mxGeometry>
        </mxCell>
        <mxCell id="ce-Z01VO8jr70EExwTUU-43" style="edgeStyle=orthogonalEdgeStyle;rounded=0;orthogonalLoop=1;jettySize=auto;html=1;entryX=0.02;entryY=0.833;entryDx=0;entryDy=0;entryPerimeter=0;" edge="1" parent="1" source="ce-Z01VO8jr70EExwTUU-39" target="ce-Z01VO8jr70EExwTUU-37">
          <mxGeometry relative="1" as="geometry">
            <Array as="points">
              <mxPoint x="440" y="540" />
              <mxPoint x="440" y="800" />
              <mxPoint x="-170" y="800" />
              <mxPoint x="-170" y="670" />
            </Array>
          </mxGeometry>
        </mxCell>
        <mxCell id="ce-Z01VO8jr70EExwTUU-44" value="+" style="shape=step;perimeter=stepPerimeter;whiteSpace=wrap;html=1;fixedSize=1;rotation=-182;size=19.639999999999873;fontStyle=1;fontSize=30;" vertex="1" parent="1">
          <mxGeometry x="300" y="850" width="70" height="100" as="geometry" />
        </mxCell>
        <mxCell id="ce-Z01VO8jr70EExwTUU-45" value="ROM&lt;div&gt;(Instruction)&lt;/div&gt;" style="rounded=0;whiteSpace=wrap;html=1;fontStyle=1;fontSize=30;" vertex="1" parent="1">
          <mxGeometry x="-760" y="330" width="260" height="680" as="geometry" />
        </mxCell>
        <mxCell id="ce-Z01VO8jr70EExwTUU-46" style="edgeStyle=orthogonalEdgeStyle;rounded=0;orthogonalLoop=1;jettySize=auto;html=1;entryX=1;entryY=0.86;entryDx=0;entryDy=0;entryPerimeter=0;" edge="1" parent="1" source="ce-Z01VO8jr70EExwTUU-38" target="ce-Z01VO8jr70EExwTUU-45">
          <mxGeometry relative="1" as="geometry" />
        </mxCell>
        <mxCell id="ce-Z01VO8jr70EExwTUU-47" value="RAM&lt;div&gt;(Data)&lt;/div&gt;" style="rounded=0;whiteSpace=wrap;html=1;fontStyle=1;fontSize=30;" vertex="1" parent="1">
          <mxGeometry x="920" y="300" width="263" height="640" as="geometry" />
        </mxCell>
        <mxCell id="ce-Z01VO8jr70EExwTUU-51" style="edgeStyle=orthogonalEdgeStyle;rounded=0;orthogonalLoop=1;jettySize=auto;html=1;exitX=1;exitY=0.5;exitDx=0;exitDy=0;entryX=1.012;entryY=0.356;entryDx=0;entryDy=0;entryPerimeter=0;" edge="1" parent="1" source="ce-Z01VO8jr70EExwTUU-44" target="ce-Z01VO8jr70EExwTUU-38">
          <mxGeometry relative="1" as="geometry" />
        </mxCell>
        <mxCell id="ce-Z01VO8jr70EExwTUU-52" value="&lt;b&gt;4&lt;/b&gt;" style="text;html=1;align=center;verticalAlign=middle;whiteSpace=wrap;rounded=0;fontSize=20;" vertex="1" parent="1">
          <mxGeometry x="420" y="860" width="60" height="30" as="geometry" />
        </mxCell>
        <mxCell id="ce-Z01VO8jr70EExwTUU-53" style="edgeStyle=orthogonalEdgeStyle;rounded=0;orthogonalLoop=1;jettySize=auto;html=1;exitX=0;exitY=0.5;exitDx=0;exitDy=0;" edge="1" parent="1" source="ce-Z01VO8jr70EExwTUU-52">
          <mxGeometry relative="1" as="geometry">
            <mxPoint x="360" y="875" as="targetPoint" />
          </mxGeometry>
        </mxCell>
        <mxCell id="ce-Z01VO8jr70EExwTUU-54" style="edgeStyle=orthogonalEdgeStyle;rounded=0;orthogonalLoop=1;jettySize=auto;html=1;entryX=0.004;entryY=0.375;entryDx=0;entryDy=0;entryPerimeter=0;" edge="1" parent="1" source="ce-Z01VO8jr70EExwTUU-39" target="ce-Z01VO8jr70EExwTUU-47">
          <mxGeometry relative="1" as="geometry" />
        </mxCell>
        <mxCell id="ce-Z01VO8jr70EExwTUU-55" value="Control Unit" style="rounded=0;whiteSpace=wrap;html=1;fontStyle=1;fontSize=30;" vertex="1" parent="1">
          <mxGeometry x="-267" y="120" width="1130" height="160" as="geometry" />
        </mxCell>
        <mxCell id="ce-Z01VO8jr70EExwTUU-56" value="Register File" style="text;html=1;align=center;verticalAlign=middle;whiteSpace=wrap;rounded=0;fontStyle=1;fontSize=30;" vertex="1" parent="1">
          <mxGeometry x="-35" y="360" width="90" height="30" as="geometry" />
        </mxCell>
        <mxCell id="ce-Z01VO8jr70EExwTUU-58" value="" style="endArrow=classic;html=1;rounded=0;exitX=-0.01;exitY=0.778;exitDx=0;exitDy=0;exitPerimeter=0;" edge="1" parent="1" source="ce-Z01VO8jr70EExwTUU-47">
          <mxGeometry width="50" height="50" relative="1" as="geometry">
            <mxPoint x="590" y="790" as="sourcePoint" />
            <mxPoint x="440" y="800" as="targetPoint" />
          </mxGeometry>
        </mxCell>
        <mxCell id="ce-Z01VO8jr70EExwTUU-62" value="Data Path" style="text;html=1;align=center;verticalAlign=middle;whiteSpace=wrap;rounded=0;fontStyle=1;fontSize=30;" vertex="1" parent="1">
          <mxGeometry x="-150" y="981" width="110" height="99" as="geometry" />
        </mxCell>
        <mxCell id="ce-Z01VO8jr70EExwTUU-63" value="CPU" style="text;html=1;align=center;verticalAlign=middle;whiteSpace=wrap;rounded=0;fontStyle=1;fontSize=30;" vertex="1" parent="1">
          <mxGeometry x="110" y="-20" width="320" height="100" as="geometry" />
        </mxCell>
      </root>
    </mxGraphModel>
  </diagram>
</mxfile>
